<svg xmlns="http://www.w3.org/2000/svg" xml:space="preserve" width="753.2" height="753.2"><path d="M609.8 163.7C506.5 193 487.6 276.5 494.3 329.5 420.7 243 423.7 143.5 423.7 0 187.5 89 242.4 345.7 235.4 423.7 176 375 164.8 258.9 164.8 258.9 102 291.2 70.6 377.3 70.6 447.2a306 306 0 1 0 612 0c0-100.4-73.7-146.7-72.8-283.5M388.4 706.2c-149.5 0-270.7-126.2-270.7-267.8 0-32.9.7-59.6 23.5-85.3-2.5 14.9 33 142.5 148.4 135.8-5-97-31.2-334.5 90.6-416.6-10.8 129.1 20.8 302.5 161.9 327.9-8.1-51.8-7.2-138 29.1-153.8 3.9 79.3 62.5 128.2 62.5 204.4 0 138-133.5 255.4-245.3 255.4"/></svg>