<svg xmlns="http://www.w3.org/2000/svg" viewBox="0 0 32 32"><g data-name="Layer 2"><path d="M28 9H11a1 1 0 0 1 0-2h17a1 1 0 0 1 0 2M7 9H4a1 1 0 0 1 0-2h3a1 1 0 0 1 0 2M21 17H4a1 1 0 0 1 0-2h17a1 1 0 0 1 0 2M11 25H4a1 1 0 0 1 0-2h7a1 1 0 0 1 0 2"/><path d="M9 11a3 3 0 1 1 3-3 3 3 0 0 1-3 3m0-4a1 1 0 1 0 1 1 1 1 0 0 0-1-1M23 19a3 3 0 1 1 3-3 3 3 0 0 1-3 3m0-4a1 1 0 1 0 1 1 1 1 0 0 0-1-1M13 27a3 3 0 1 1 3-3 3 3 0 0 1-3 3m0-4a1 1 0 1 0 1 1 1 1 0 0 0-1-1"/><path d="M28 17h-3a1 1 0 0 1 0-2h3a1 1 0 0 1 0 2M28 25H15a1 1 0 0 1 0-2h13a1 1 0 0 1 0 2"/></g><path d="M0 0h32v32H0z" style="fill:none"/></svg>