<svg xmlns="http://www.w3.org/2000/svg" xml:space="preserve" width="128" height="128"><path fill="#fff" d="M121.6 27.9a24.4 24.4 0 0 0-41-17.8 24 24 0 0 0-33.2 0 24.4 24.4 0 1 0-26.5 40l-.1 1.6v54.2c0 10.4 6.9 18.7 15.8 18.7h54.8c9 0 16.4-8.3 16.4-18.7V51.7q-.1-.8-.3-1.6a25 25 0 0 0 14.1-22.2"/><path fill="#37474f" d="M91.4 126H36.6c-9.7 0-17.3-8.9-17.3-20.2V51.1a26 26 0 1 1 28.1-43A26 26 0 0 1 64 2a26 26 0 0 1 16.6 6.1 26 26 0 1 1 28.5 42.8l.1.8v54.2c.1 11-7.9 20.1-17.8 20.1M30.8 5A23 23 0 0 0 7.9 27.9a23 23 0 0 0 13.6 20.8q.9.4.9 1.5v.1l-.1 1.3v54.2c0 9.6 6.3 17.2 14.3 17.2h54.8c8.2 0 14.9-7.7 14.9-17.2V51.7l-.1-.4-.2-1q0-1 .9-1.5a23 23 0 1 0-25.3-37.6q-1 .7-2.1 0a22.8 22.8 0 0 0-31.1 0q-1 .7-2.1 0C42.1 7.2 36.6 5 30.8 5"/><path fill="#ffab00" d="M21.5 112.5c2.2 7 8.1 12 15.2 12h54.8c7.1 0 12.9-5 15.2-12z"/><path fill="#37474f" d="M91.4 126H36.6c-7.6 0-14.1-5.1-16.6-13q-.2-.8.2-1.3t1.2-.6h85.1q.8 0 1.2.6.5.7.2 1.3c-2.4 7.9-8.9 13-16.5 13m-67.8-12c2.5 5.5 7.4 9 13 9h54.8c5.6 0 10.5-3.5 13-9z"/><g fill="#37474f"><path d="M53.8 88.3q-.2 1.6-1.7 1.7-1.5-.2-1.7-1.7.1-1.5 1.7-1.7 1.5.2 1.7 1.7"/><path d="M52.1 90.6q-.9 0-1.6-.7-.6-.7-.6-1.6c0-1.2 1-2.1 2.2-2.1q2 .2 2.2 2.2-.2 1.8-2.2 2.2m.1-3.4q-1.2 0-1.3 1.2l.3.9q.3.3.8.4v.5-.5q1.1-.2 1.2-1.2 0-1.3-1-1.3M65.7 88.4q-.2 1.5-1.7 1.7-1.6-.2-1.7-1.7.2-1.5 1.7-1.7 1.5.1 1.7 1.7"/><path d="M64 90.6q-2-.2-2.2-2.2c0-1.2 1-2.2 2.2-2.2s2.2 1 2.2 2.2a2 2 0 0 1-2.2 2.2m0-3.5q-1 .1-1.2 1.2 0 1.1 1.2 1.2.4 0 .9-.4.3-.3.3-.8-.1-1-1.2-1.2M77.6 88.3q-.2 1.6-1.7 1.7-1.5-.2-1.7-1.7.2-1.5 1.7-1.7 1.5.2 1.7 1.7"/><path d="M75.9 90.6q-2-.2-2.2-2.2c0-1.2 1-2.2 2.1-2.2h.1c1.2 0 2.2 1 2.2 2.2s-1 2.2-2.2 2.2m-.1-3.4q-1 0-1.1 1.2.1 1.1 1.2 1.2 1.1-.1 1.2-1.2t-1.2-1.2z"/></g><path fill="#37474f" d="m51.3 50.6-.8-.2A20 20 0 0 1 44.4 23c.4-.7 1.4-.9 2.1-.5s.9 1.4.5 2.1c-5 7.8-2.7 18.2 5.1 23.2.7.4.9 1.4.5 2.1q-.5.7-1.3.7M76.7 50.6q-.8 0-1.3-.7-.6-1.2.5-2.1c7.8-5 10.1-15.4 5.1-23.2q-.6-1.2.5-2.1 1.2-.6 2.1.5a20 20 0 0 1-6.1 27.4z"/></svg>