<svg xmlns="http://www.w3.org/2000/svg" xml:space="preserve" viewBox="0 0 86 86"><path d="M71.2 51.2C74.1 48.8 76 45.1 76 41c0-6.9-5.6-13-12-13s-12 6.1-12 13c0 4.1 1.9 7.8 4.8 10.2q-2 .7-3.7 1.7-5.8-7-14.6-9.7C42.9 40.1 46 34.8 46 29c0-9.1-7.5-17-16-17s-16 7.9-16 17c0 5.8 3.1 11.1 7.5 14.2A30 30 0 0 0 0 72q.2 1.8 2 2h82a2 2 0 0 0 2-2 22 22 0 0 0-14.8-20.8M56 41c0-4.2 3.5-9 8-9s8 4.8 8 9-3.5 9-8 9-8-4.8-8-9M18 29c0-6.1 5.1-13 12-13s12 6.9 12 13-5.1 13-12 13-12-6.9-12-13M4.1 70a26 26 0 0 1 51.8 0zm55.8 0q-.5-7.6-4.5-13.8A18 18 0 0 1 81.9 70z"/></svg>